<!-- icon666.com - MILLIONS vector ICONS FREE --><svg viewBox="-1 0 512 512.00089" xmlns="http://www.w3.org/2000/svg"><path d="m500.734375 107.390625c-12.292969-57.167969-31.351563-97.207031-32.152344-98.882813-3.3125-6.890624-11.277343-10.1875-18.492187-7.65625-1.40625.492188-34.992188 12.402344-77.300782 37.648438-39.25 23.417969-93.667968 63.265625-130.015624 120.066406-3.152344 4.929688-3.152344 11.242188.003906 16.167969 7.695312 12.027344 14.238281 24.507813 19.449218 37.09375 46.949219 113.34375-6.761718 247.730469-18.121093 273.761719l-2.359375 5.226562c-2.472656 5.46875-1.449219 11.886719 2.609375 16.316406 2.894531 3.152344 6.925781 4.863282 11.058593 4.863282 1.660157 0 3.339844-.277344 4.964844-.847656 1.753906-.613282 43.539063-15.449219 92.65625-47.183594 28.949219-18.703125 54.460938-39.445313 75.820313-61.648438 27.003906-28.0625 47.441406-58.570312 60.734375-90.664062 13.292968-32.097656 20.417968-68.117188 21.167968-107.058594.59375-30.800781-2.777343-63.503906-10.023437-97.203125zm0 0" fill="#00ab5e"></path><path d="m510.757812 204.59375c.59375-30.800781-2.777343-63.503906-10.023437-97.203125-12.292969-57.167969-31.351563-97.207031-32.152344-98.882813-1.65625-3.445312-4.476562-5.992187-7.78125-7.363281l-211.125 509.699219c1.816407.75 3.765625 1.152344 5.738281 1.152344 1.664063 0 3.34375-.277344 4.96875-.847656 1.753907-.613282 43.535157-15.449219 92.65625-47.183594 28.945313-18.703125 54.457032-39.445313 75.816407-61.648438 27.007812-28.0625 47.441406-58.570312 60.734375-90.664062 13.296875-32.097656 20.417968-68.117188 21.167968-107.058594zm0 0" fill="#00884a"></path><path d="m257.253906 507.546875c-1.914062 0-3.859375-.371094-5.734375-1.144531-7.65625-3.171875-11.289062-11.945313-8.121093-19.597656l160.914062-388.480469c3.167969-7.65625 11.941406-11.289063 19.597656-8.117188 7.652344 3.167969 11.289063 11.941407 8.117188 19.597657l-160.910156 388.476562c-2.394532 5.777344-7.980469 9.265625-13.863282 9.265625zm0 0" fill="#54e360"></path><path d="m289.945312 200.347656c-5.882812-14.214844-13.253906-28.273437-21.898437-41.78125-.007813-.007812-.015625-.019531-.019531-.027344-36.347656-56.789062-90.75-96.621093-129.992188-120.039062-42.308594-25.246094-75.890625-37.15625-77.300781-37.648438-7.210937-2.535156-15.175781.765626-18.488281 7.65625-.804688 1.679688-19.863282 41.714844-32.152344 98.886719-7.25 33.695313-10.621094 66.394531-10.0273438 97.199219.7539058 38.941406 7.8749998 74.960938 21.1679688 107.058594 13.296875 32.097656 33.730469 62.601562 60.734375 90.667968 21.359375 22.199219 46.871094 42.941407 75.816406 61.644532 49.121094 31.734375 90.902344 46.566406 92.660156 47.183594 1.636719.574218 3.316407.851562 4.964844.851562 5.746094 0 11.183594-3.320312 13.667969-8.828125l2.40625-5.316406c.027344-.058594.054687-.117188.078125-.175781 6.894531-15.78125 23.9375-58.332032 33.28125-112.449219 12.046875-69.730469 7.03125-131.933594-14.898438-184.882813zm0 0" fill="#54e360"></path><path d="m268.046875 158.566406c-.007813-.007812-.015625-.019531-.023437-.027344-36.34375-56.789062-90.75-96.621093-129.988282-120.039062-42.308594-25.246094-75.890625-37.15625-77.300781-37.648438-3.605469-1.269531-7.402344-1.078124-10.707031.292969l211.125 509.699219c3.410156-1.414062 6.300781-4.070312 7.925781-7.671875l2.40625-5.316406c.027344-.058594.054687-.117188.078125-.175781 6.894531-15.78125 23.9375-58.332032 33.28125-112.449219 12.046875-69.730469 7.03125-131.933594-14.898438-184.882813-5.882812-14.214844-13.253906-28.273437-21.898437-41.78125zm0 0" fill="#1fbf66"></path><path d="m102.195312 127.097656c-7.652343 3.171875-11.285156 11.945313-8.117187 19.597656l149.964844 362.039063c3.773437 1.484375 6.023437 2.285156 6.402343 2.414063 1.636719.574218 3.316407.851562 4.964844.851562 5.746094 0 11.183594-3.320312 13.667969-8.828125l2.40625-5.316406c.027344-.058594.054687-.117188.078125-.175781.0625-.136719.128906-.296876.191406-.433594l-149.960937-362.03125c-3.167969-7.648438-11.941407-11.289063-19.597657-8.117188zm0 0" fill="#00ab5e"></path></svg>